<svg xmlns="http://www.w3.org/2000/svg" viewBox="0 0 1400 620"><defs><linearGradient id="sky" x1="0" y1="0" x2="1" y2="1"><stop stop-color="#dff3ff"/><stop offset=".55" stop-color="#a8d8f5"/><stop offset="1" stop-color="#eaf6ff"/></linearGradient><linearGradient id="dress" x1="0" x2="1"><stop stop-color="#0b5ed7"/><stop offset="1" stop-color="#743eea"/></linearGradient></defs><rect width="1400" height="620" rx="40" fill="url(#sky)"/><circle cx="1130" cy="115" r="85" fill="#fff" opacity=".55"/><g opacity=".75" fill="#5d8fb7"><rect x="50" y="300" width="70" height="230" rx="5"/><rect x="135" y="250" width="95" height="280" rx="5"/><rect x="245" y="330" width="75" height="200" rx="5"/><rect x="335" y="205" width="115" height="325" rx="5"/><rect x="465" y="275" width="80" height="255" rx="5"/><rect x="560" y="165" width="125" height="365" rx="5"/><rect x="700" y="245" width="90" height="285" rx="5"/><rect x="805" y="185" width="120" height="345" rx="5"/></g><path d="M0 505c240-55 460-45 700 5 220 45 450 48 700-25v135H0z" fill="#7bb3d4" opacity=".65"/><g transform="translate(820 55)"><path d="M170 145c-35-75 8-125 78-125 68 0 108 55 72 123l-22 45H195z" fill="#a96e52"/><path d="M172 128c-34-80 4-125 79-125 48 0 92 31 91 89-28-21-51-49-71-75-18 42-51 69-99 83z" fill="#9d654e"/><ellipse cx="249" cy="139" rx="64" ry="78" fill="#d99c7e"/><path d="M190 140c25-10 45-28 58-52 17 25 37 44 71 58-4 55-34 88-71 88-37 0-58-34-58-94z" fill="#e2aa8b"/><circle cx="228" cy="142" r="5" fill="#2b3850"/><circle cx="273" cy="142" r="5" fill="#2b3850"/><path d="M240 176q15 10 29 0" fill="none" stroke="#8c4f43" stroke-width="4" stroke-linecap="round"/><path d="M155 180c35 45 75 55 120 55 50 0 87-18 111-58 43 30 70 76 74 153H80c3-78 30-126 75-150z" fill="#c5a38d"/><path d="M135 290c80-50 165-58 250-5 47 30 78 82 90 180H55c13-89 38-142 80-175z" fill="url(#dress)"/><rect x="285" y="265" width="128" height="220" rx="24" transform="rotate(-13 285 265)" fill="#182f56" stroke="#fff" stroke-width="12"/><rect x="302" y="286" width="94" height="178" rx="12" fill="#e9f5ff"/><path d="M323 340h52M323 367h52M323 394h35" stroke="#2b70dc" stroke-width="8" stroke-linecap="round"/><path d="M0 540h1400" stroke="#fff" stroke-width="8" opacity=".5"/></g><text x="72" y="92" font-family="Arial" font-size="46" font-weight="700" fill="#103c7a">MNTY</text><text x="72" y="138" font-family="Arial" font-size="25" font-weight="600" fill="#3a638c">Discover · Connect · Book · Follow</text></svg>